<svg width="85" height="50" viewBox="0 0 85 50" fill="none" xmlns="http://www.w3.org/2000/svg">
<path fill-rule="evenodd" clip-rule="evenodd" d="M60.231 0.497628C67.5562 2.19743 70.3583 6.48077 73.8713 12.3762H60.231V0.497628ZM17.4221 12.8713C18.8564 12.8713 19.8974 13.5636 19.8974 15.1815C19.8974 16.5461 18.7932 17.6529 17.4292 17.6568H2.47525C1.10806 17.6568 0 18.7655 0 20.132C0 21.4992 1.10806 22.6073 2.47525 22.6073H24.7525C26.1326 22.6073 27.2374 23.7147 27.2374 25.0825C27.2374 26.4497 26.1293 27.5578 24.7621 27.5578H2.47525C1.10806 27.5578 0 28.6658 0 30.033C0 31.4002 1.10806 32.5083 2.47525 32.5083H7.92079V39.934C7.92079 41.3012 9.02885 42.4092 10.396 42.4092H15.3717C16.2586 46.7783 20.1191 50 24.67 50C29.2208 50 33.0813 46.7783 33.9683 42.4092H59.101C59.988 46.7783 63.8485 50 68.3993 50C72.9502 50 76.8107 46.7783 77.6976 42.4092H82.0132C83.3804 42.4092 84.4884 41.3012 84.4884 39.934V25.0825C84.4884 17.8198 76.8281 17.3377 76.821 17.3267H57.7558C56.3886 17.3267 55.2805 16.2187 55.2805 14.8515V0H10.396C9.02885 0 7.92079 1.10806 7.92079 2.47525V7.92079H4.9505C3.58331 7.92079 2.47525 9.02885 2.47525 10.396C2.47525 11.7632 3.58331 12.8713 4.9505 12.8713H17.4221ZM71.6081 37.3028C73.3801 39.0747 73.3801 41.949 71.6081 43.721C68.7577 46.5714 63.8614 44.5435 63.8614 40.5116C63.8614 36.4803 68.7577 34.4524 71.6081 37.3028ZM27.8788 37.3028C29.6508 39.0747 29.6508 41.949 27.8788 43.721C25.0284 46.5714 20.132 44.5435 20.132 40.5116C20.132 36.4803 25.0284 34.4524 27.8788 37.3028Z" fill="#588535"/>
</svg>
