<svg width="68" height="57" viewBox="0 0 68 57" fill="none" xmlns="http://www.w3.org/2000/svg">
<path d="M28.4976 37.1305C28.4976 34.8132 28.5525 34.2168 28.2921 33.1418C27.5167 29.9498 24.6349 27.573 21.2069 27.573H19.086C15.057 27.573 11.7953 30.8514 11.7953 34.8637V37.1305C10.0163 37.2749 8.61386 38.7689 8.61386 40.5836V53.5345C8.61386 55.446 10.1688 57.0009 12.0803 57.0009H28.2126C30.1241 57.0009 31.679 55.446 31.679 53.5345V40.5836C31.679 38.7689 30.2765 37.2749 28.4976 37.1305ZM15.772 34.8637C15.772 33.0365 17.2583 31.5497 19.086 31.5497C21.1173 31.5497 22.888 31.2629 24.037 33.1404C24.6465 34.1377 24.5209 34.8155 24.5209 37.1172H15.772V34.8637Z" fill="#588535"/>
<path d="M58.9487 0H8.92118C4.00194 0 0 4.00194 0 8.92117V10.6047H67.8699V8.92117C67.8699 4.00194 63.8679 0 58.9487 0Z" fill="#588535"/>
<path d="M0 37.4805C0 40.8488 1.87703 43.7863 4.63954 45.3027C4.63954 40.7366 4.036 37.1367 7.82889 34.4846C8.31233 19.7754 31.9894 19.8983 32.4688 34.4846C36.4147 37.2437 35.6582 41.2657 35.6582 46.4016H58.9487C63.8679 46.4016 67.8699 42.3997 67.8699 37.4805V14.5876H0V37.4805ZM38.3094 23.9569C38.3094 21.2765 40.4913 19.0946 43.1716 19.0946H54.3913C57.0717 19.0946 59.2536 21.2765 59.2536 23.9569V26.6929C59.2536 29.3732 57.0717 31.5551 54.3913 31.5551H43.1716C40.4913 31.5551 38.3094 29.3732 38.3094 26.6929V23.9569Z" fill="#588535"/>
<path d="M43.1679 27.5681C54.4845 27.5681 55.2731 27.9287 55.2731 26.6826C55.2731 24.4049 55.5653 23.0611 54.3876 23.0611C43.071 23.0611 42.2824 22.7006 42.2824 23.9466C42.2824 26.2244 41.9902 27.5681 43.1679 27.5681Z" fill="#588535"/>
</svg>
