<svg width="40" height="40" viewBox="0 0 40 40" fill="none" xmlns="http://www.w3.org/2000/svg">
<path d="M21.1698 8.75061C20.7847 8.71094 20.3941 8.69049 19.998 8.69049C13.7618 8.69049 8.6889 13.7634 8.6889 19.9996C8.6889 26.2354 13.7618 31.3083 19.998 31.3083C20.3941 31.3083 20.7847 31.2882 21.1698 31.2482C26.8573 30.6601 31.3076 25.8402 31.3076 19.9996C31.3076 14.1589 26.8573 9.33898 21.1698 8.75061ZM21.1698 28.8883V11.1105C25.5622 11.6864 28.9642 15.4525 28.9642 19.9996C28.9642 24.5466 25.5622 28.3127 21.1698 28.8883Z" fill="#588535"/>
<path d="M19.9996 6.99546C20.6466 6.99546 21.1715 6.47056 21.1715 5.8236V1.17186C21.1715 0.524591 20.6466 0 19.9996 0C19.3524 0 18.8278 0.524591 18.8278 1.17186V5.8236C18.8278 6.47056 19.3524 6.99546 19.9996 6.99546Z" fill="#588535"/>
<path d="M19.9996 33.0056C19.3524 33.0056 18.8278 33.5305 18.8278 34.1775V38.8292C18.8278 39.4765 19.3524 40.0011 19.9996 40.0011C20.6466 40.0011 21.1715 39.4765 21.1715 38.8292V34.1775C21.1715 33.5302 20.6469 33.0056 19.9996 33.0056Z" fill="#588535"/>
<path d="M6.99546 19.9996C6.99546 19.3523 6.47056 18.8278 5.8236 18.8278H1.17186C0.524591 18.8278 0 19.3523 0 19.9996C0 20.6466 0.524591 21.1715 1.17186 21.1715H5.8236C6.47056 21.1715 6.99546 20.6469 6.99546 19.9996Z" fill="#588535"/>
<path d="M38.8277 18.8278H34.1759C33.5287 18.8278 33.0041 19.3523 33.0041 19.9996C33.0041 20.6466 33.5287 21.1715 34.1759 21.1715H38.8277C39.4749 21.1715 39.9995 20.6466 39.9995 19.9996C39.9995 19.3523 39.4749 18.8278 38.8277 18.8278Z" fill="#588535"/>
<path d="M8.86546 10.5225C9.09434 10.7514 9.39433 10.8658 9.694 10.8658C9.99399 10.8658 10.2937 10.7514 10.5225 10.5225C10.98 10.0648 10.98 9.32288 10.5225 8.86543L7.14094 5.48382C6.68348 5.02606 5.9413 5.02606 5.48385 5.48382C5.02609 5.94127 5.02609 6.68315 5.48385 7.14091L8.86546 10.5225Z" fill="#588535"/>
<path d="M31.1324 29.4772C30.675 29.0194 29.9331 29.0194 29.4754 29.4772C29.0179 29.9346 29.0179 30.6765 29.4754 31.1343L32.857 34.5159C33.0858 34.7447 33.3858 34.8592 33.6855 34.8592C33.9855 34.8592 34.2852 34.7447 34.514 34.5159C34.9715 34.0581 34.9715 33.3162 34.514 32.8588L31.1324 29.4772Z" fill="#588535"/>
<path d="M8.86523 29.4772L5.48362 32.8588C5.02617 33.3162 5.02617 34.0581 5.48362 34.5159C5.7125 34.7447 6.01218 34.8592 6.31216 34.8592C6.61184 34.8592 6.91183 34.7447 7.14071 34.5159L10.5223 31.1343C10.9798 30.6765 10.9798 29.9346 10.5223 29.4772C10.0649 29.0194 9.32269 29.0194 8.86523 29.4772Z" fill="#588535"/>
<path d="M30.3041 10.8658C30.6041 10.8658 30.9038 10.7514 31.1327 10.5225L34.5143 7.14091C34.9717 6.68315 34.9717 5.94127 34.5143 5.48382C34.0568 5.02606 33.3146 5.02606 32.8572 5.48382L29.4756 8.86543C29.0178 9.32288 29.0178 10.0648 29.4756 10.5225C29.7045 10.7514 30.0041 10.8658 30.3041 10.8658Z" fill="#588535"/>
</svg>
