<svg width="34" height="34" viewBox="0 0 34 34" fill="none" xmlns="http://www.w3.org/2000/svg">
<path d="M4.51267 28.0598C1.45563 30.9196 2.22046 33.5072 4.51267 33.5072C6.80489 33.5072 7.56971 30.9196 4.51267 28.0598Z" fill="#588535"/>
<path d="M10.4255 23.5443C8.60977 25.243 9.0641 26.7798 10.4255 26.7798C11.787 26.7798 12.2413 25.2429 10.4255 23.5443Z" fill="#588535"/>
<path d="M29.4902 28.0598C32.5472 30.9196 31.7824 33.5072 29.4902 33.5072C27.198 33.5072 26.4331 30.9196 29.4902 28.0598Z" fill="#588535"/>
<path d="M17.0013 27.1567C20.566 30.4915 19.6742 33.5087 17.0013 33.5087C14.3285 33.5087 13.4367 30.4915 17.0013 27.1567Z" fill="#588535"/>
<path d="M23.7107 24.2083C25.9414 26.2952 25.3833 28.1834 23.7107 28.1834C22.038 28.1834 21.4799 26.2952 23.7107 24.2083Z" fill="#588535"/>
<path d="M31.1126 13.5883C31.1126 14.1455 31.0389 14.6846 30.9008 15.1979L29.0548 15.6216L11.0106 19.7598H6.67052C3.26141 19.7598 0.49707 16.9968 0.49707 13.5883C0.49707 10.6215 2.59207 8.14399 5.38363 7.55168C5.67381 5.37367 6.8259 3.46726 8.4853 2.18702C9.85983 1.12789 11.583 0.49707 13.4535 0.49707C16.3055 0.49707 18.8142 1.96324 20.2684 4.18175C20.7565 4.02504 21.2764 3.93872 21.8169 3.93872C24.1497 3.93872 26.1112 5.52109 26.6902 7.66921C29.2467 8.42421 31.1126 10.7881 31.1126 13.5883Z" fill="#588535"/>
<path d="M31.1147 13.5893C31.1147 14.1464 31.041 14.6856 30.9029 15.1989L29.0569 15.6226C29.1001 15.3277 29.1227 15.0256 29.1227 14.7182C29.1227 11.918 27.2567 9.55403 24.7002 8.79903C24.1212 6.65091 22.1597 5.06854 19.827 5.06854C19.2864 5.06854 18.7665 5.15486 18.2785 5.31157C16.8242 3.09306 14.3155 1.62689 11.4636 1.62689C10.4131 1.62689 9.40906 1.8261 8.4874 2.18799C9.86193 1.12887 11.5851 0.498047 13.4556 0.498047C16.3076 0.498047 18.8163 1.96422 20.2705 4.18273C20.7586 4.02602 21.2785 3.93969 21.819 3.93969C24.1518 3.93969 26.1133 5.52207 26.6923 7.67019C29.2488 8.42518 31.1147 10.7891 31.1147 13.5893Z" fill="#588535"/>
<path d="M33.4997 17.6762C33.4997 18.8794 32.9612 19.9565 32.1112 20.6796C31.4226 21.2672 30.5295 21.6212 29.5534 21.6212C28.1815 21.6212 26.973 20.9213 26.2658 19.8595C25.1928 20.9465 23.7027 21.6212 22.0539 21.6212C20.943 21.6212 19.9045 21.3144 19.016 20.7825C18.2756 21.3097 17.3705 21.6212 16.3924 21.6212C13.893 21.6212 11.8664 19.5952 11.8664 17.0965C11.8664 14.5984 13.893 12.5725 16.3924 12.5725C16.6016 12.5725 16.8068 12.5878 17.0086 12.6157C18.0492 10.9211 19.9197 9.79089 22.0539 9.79089C24.7864 9.79089 27.0846 11.6429 27.7652 14.1589C28.3024 13.8859 28.9093 13.7306 29.5534 13.7306C31.7327 13.7306 33.4997 15.4969 33.4997 17.6762Z" fill="#588535"/>
<path d="M33.5029 17.6762C33.5029 18.8794 32.9644 19.9565 32.1144 20.6796C32.2824 20.242 32.374 19.7665 32.374 19.2699C32.374 17.0905 30.6071 15.3242 28.4277 15.3242C27.7836 15.3242 27.1767 15.4796 26.6395 15.7525C25.9589 13.2365 23.6607 11.3846 20.9282 11.3846C18.7469 11.3846 17.7993 12.2279 17.0118 12.6157C18.0523 10.9211 19.9229 9.79089 22.0571 9.79089C24.7895 9.79089 27.0877 11.6429 27.7684 14.1589C28.3056 13.8859 28.9125 13.7306 29.5566 13.7306C31.7359 13.7306 33.5029 15.4969 33.5029 17.6762Z" fill="#588535"/>
<path d="M0.996038 13.5936C0.996038 10.9298 2.88519 8.59593 5.48797 8.04419C5.69415 8.0005 5.85053 7.83164 5.87835 7.62274C6.0006 6.70459 6.286 5.82608 6.72665 5.01159C6.85753 4.76969 6.76748 4.46749 6.52558 4.33654C6.28361 4.2056 5.98148 4.2957 5.85053 4.53761C5.40676 5.35788 5.10224 6.23539 4.94314 7.15095C3.60413 7.50999 2.39487 8.28869 1.5092 9.36879C0.536002 10.5558 0 12.0562 0 13.5936C0 14.8303 0.341309 16.0381 0.986941 17.0862C1.08103 17.2389 1.24432 17.323 1.41145 17.323C1.50057 17.323 1.59074 17.2991 1.67215 17.249C1.90635 17.1047 1.97926 16.7979 1.83497 16.5638C1.28615 15.6729 0.996038 14.6458 0.996038 13.5936Z" fill="#588535"/>
<path d="M6.67165 18.2671C6.94669 18.2671 7.16967 18.0441 7.16967 17.7691C7.16967 17.494 6.94669 17.271 6.67165 17.271C4.64059 17.271 2.98816 15.6193 2.98816 13.5891C2.98816 13.3141 2.76518 13.0911 2.49015 13.0911C2.21511 13.0911 1.99213 13.3141 1.99213 13.5891C1.99213 16.1686 4.09138 18.2671 6.67165 18.2671Z" fill="#588535"/>
<path d="M31.6086 13.7386C31.6098 13.6888 31.6103 13.6391 31.6103 13.5895C31.6103 12.1213 31.1422 10.7285 30.2564 9.56184C29.4553 8.50663 28.3395 7.70243 27.0923 7.27613C26.3571 5.00509 24.2261 3.44204 21.8165 3.44204C21.3631 3.44204 20.9137 3.49716 20.4759 3.60612C18.8519 1.34127 16.2534 0 13.4529 0C11.137 0 8.96199 0.903872 7.32856 2.54514C7.13453 2.7401 7.13526 3.05545 7.33022 3.24941C7.52517 3.44344 7.84052 3.44271 8.03448 3.24775C9.47967 1.79572 11.4039 0.996038 13.4529 0.996038C16.0396 0.996038 18.4315 2.28943 19.8511 4.45588C19.974 4.64333 20.2068 4.72574 20.4203 4.65694C20.8716 4.51166 21.3414 4.43795 21.8164 4.43795C23.8692 4.43795 25.6755 5.82045 26.2089 7.80004C26.254 7.96724 26.3827 8.09905 26.5488 8.14812C27.6989 8.48764 28.7338 9.20359 29.463 10.164C30.17 11.0953 30.5641 12.1962 30.6097 13.3608C30.2706 13.2777 29.9163 13.2336 29.5519 13.2336C29.0406 13.2336 28.5448 13.3185 28.0716 13.4866C27.874 12.9506 27.6053 12.4442 27.2693 11.9754C27.1091 11.7518 26.798 11.7005 26.5744 11.8607C26.3508 12.0209 26.2995 12.3321 26.4597 12.5556C26.8377 13.0829 27.1148 13.6664 27.2835 14.29C27.3226 14.4349 27.425 14.5542 27.5621 14.6151C27.6991 14.676 27.8564 14.6718 27.9901 14.6038C28.4778 14.3556 29.0033 14.2297 29.552 14.2297C31.4535 14.2297 33.0006 15.7761 33.0006 17.6769C33.0006 19.5777 31.4535 21.124 29.552 21.124C28.3955 21.124 27.3217 20.5484 26.6795 19.5842C26.5965 19.4595 26.4617 19.3788 26.3125 19.3645C26.1634 19.35 26.0158 19.4038 25.9105 19.5105C24.8837 20.551 23.5136 21.1241 22.0529 21.1241C21.0714 21.1241 20.1094 20.8585 19.271 20.3561C19.1012 20.2543 18.8872 20.2628 18.726 20.3777C18.0407 20.866 17.2334 21.1241 16.3913 21.1241C14.1703 21.1241 12.3633 19.3179 12.3633 17.0978C12.3633 14.8777 14.1703 13.0715 16.3913 13.0715C16.5689 13.0715 16.7537 13.0844 16.9404 13.1098C17.1359 13.1362 17.3286 13.0451 17.4318 12.877C18.427 11.2572 20.1545 10.2901 22.0529 10.2901C23.0403 10.2901 24.0064 10.5581 24.8467 11.065C25.0823 11.2072 25.3884 11.1313 25.5304 10.8957C25.6725 10.6602 25.5967 10.3541 25.3612 10.212C24.3655 9.6115 23.2215 9.2941 22.0529 9.2941C19.9118 9.2941 17.9546 10.3331 16.7558 12.0892C16.6327 12.0801 16.511 12.0754 16.3913 12.0754C13.6211 12.0754 11.3673 14.3285 11.3673 17.0978C11.3673 17.8726 11.5437 18.6069 11.8585 19.2628H6.67018C5.4736 19.2628 4.32949 18.8952 3.36134 18.1995C3.13802 18.0391 2.8268 18.09 2.6663 18.3134C2.50581 18.5367 2.5568 18.8479 2.78011 19.0084C3.91865 19.8265 5.26377 20.2589 6.67018 20.2589H12.49C13.4119 21.3937 14.8183 22.1202 16.3913 22.1202C17.3341 22.1202 18.2419 21.8608 19.0362 21.3673C19.9615 21.8607 20.9977 22.1202 22.0529 22.1202C23.5914 22.1202 25.0448 21.5833 26.2028 20.5975C27.0417 21.5598 28.2566 22.1202 29.5521 22.1202C32.0029 22.1202 33.9967 20.1269 33.9967 17.677C33.9966 15.9682 33.0268 14.4817 31.6086 13.7386Z" fill="#588535"/>
<path d="M4.84958 27.6902C4.65807 27.5111 4.36059 27.5111 4.16908 27.6902C2.3727 29.3709 1.62341 31.1928 2.16472 32.5639C2.51964 33.4627 3.39609 33.9994 4.50933 33.9994C5.62257 33.9994 6.49902 33.4627 6.85394 32.5639C7.39532 31.1928 6.64597 29.3709 4.84958 27.6902ZM5.92749 32.1982C5.72244 32.7174 5.21884 33.0034 4.50933 33.0034C3.79982 33.0034 3.29622 32.7174 3.09124 32.1982C2.81401 31.496 3.05996 30.2429 4.50933 28.7511C5.95877 30.2429 6.20472 31.496 5.92749 32.1982Z" fill="#588535"/>
<path d="M10.7625 23.1785C10.5711 22.9994 10.2735 22.9994 10.0821 23.1785C8.95212 24.2356 8.48843 25.4007 8.84163 26.2952C9.08406 26.9093 9.67498 27.2758 10.4223 27.2758C11.1697 27.2758 11.7606 26.9092 12.0031 26.2952C12.3562 25.4007 11.8925 24.2356 10.7625 23.1785ZM11.0765 25.9294C10.9562 26.2342 10.615 26.2798 10.4223 26.2798C10.2296 26.2798 9.8884 26.2342 9.76801 25.9294C9.64165 25.6094 9.75586 25.0005 10.4223 24.253C11.0887 25.0005 11.2029 25.6094 11.0765 25.9294Z" fill="#588535"/>
<path d="M29.8271 27.6902C29.6356 27.5111 29.3381 27.5111 29.1466 27.6902C27.3502 29.3709 26.6009 31.1928 27.1423 32.5639C27.4972 33.4627 28.3736 33.9994 29.4869 33.9994C30.6001 33.9994 31.4766 33.4627 31.8315 32.5639C32.3728 31.1928 31.6235 29.3709 29.8271 27.6902ZM30.905 32.1982C30.7 32.7174 30.1963 33.0034 29.4869 33.0034C28.7774 33.0034 28.2738 32.7174 28.0688 32.1982C27.7915 31.496 28.0375 30.2429 29.4869 28.7511C30.9363 30.2429 31.1823 31.496 30.905 32.1982Z" fill="#588535"/>
<path d="M17.341 26.7833C17.1496 26.6043 16.8521 26.6042 16.6606 26.7833C15.9715 27.4279 15.4119 28.0905 14.9973 28.7526C14.8514 28.9857 14.922 29.293 15.1551 29.439C15.3882 29.585 15.6956 29.5143 15.8415 29.2812C16.141 28.8028 16.53 28.3201 17.001 27.8419C18.7705 29.6364 19.0679 31.1573 18.7314 32.0097C18.4825 32.6397 17.8518 33.0009 17.0008 33.0009C16.3806 33.0009 15.8805 32.8154 15.5546 32.4643C15.2527 32.1392 15.1145 31.6807 15.1548 31.1386C15.1751 30.8643 14.9693 30.6255 14.695 30.6051C14.4211 30.5846 14.1818 30.7905 14.1614 31.0648C14.1001 31.8904 14.3294 32.6087 14.8247 33.1421C15.3366 33.6933 16.1094 33.997 17.0008 33.997C18.2636 33.997 19.2568 33.3908 19.6577 32.3755C20.2761 30.8095 19.41 28.7189 17.341 26.7833Z" fill="#588535"/>
<path d="M24.0501 23.8426C23.8587 23.6635 23.5611 23.6635 23.3697 23.8426C22.0169 25.1081 21.4578 26.4928 21.8738 27.5466C22.1539 28.2559 22.8403 28.6793 23.7099 28.6793C24.5795 28.6793 25.266 28.2559 25.5459 27.5466C25.9621 26.4928 25.4029 25.1081 24.0501 23.8426ZM24.6195 27.1809C24.4469 27.618 23.9756 27.6833 23.7099 27.6833C23.4442 27.6833 22.9728 27.618 22.8002 27.1809C22.539 26.5193 23.0716 25.6127 23.7099 24.9143C24.3481 25.6127 24.8808 26.5193 24.6195 27.1809Z" fill="#588535"/>
</svg>
