<svg width="37" height="35" viewBox="0 0 37 35" fill="none" xmlns="http://www.w3.org/2000/svg">
<path d="M12.1715 9.71419C12.1715 7.92193 11.2519 5.83862 9.43836 3.52201C8.1443 1.86906 6.86296 0.703539 6.809 0.654754L6.08577 0L5.36255 0.654754C5.30859 0.703539 4.02725 1.86906 2.73318 3.52201C0.919588 5.83854 0 7.92193 0 9.71419C0 13.0699 2.73002 15.8 6.0857 15.8C9.44138 15.8 12.1715 13.0699 12.1715 9.71419Z" fill="#588535"/>
<path d="M34.0533 3.52201C32.7592 1.86906 31.4779 0.703539 31.4239 0.654754L30.7007 0L29.9775 0.654754C29.9235 0.703539 28.6421 1.86906 27.348 3.52201C25.5345 5.83862 24.6149 7.92193 24.6149 9.71419C24.6149 13.0699 27.345 15.8 30.7007 15.8C34.0564 15.8 36.7864 13.0699 36.7864 9.71419C36.7864 7.92193 35.8668 5.83854 34.0533 3.52201Z" fill="#588535"/>
<path d="M19.1856 11.7461L18.4624 11.0913L17.7391 11.7461C17.4106 12.0434 9.69305 19.1005 9.69305 25.2321C9.69305 30.0675 13.627 34.0015 18.4624 34.0015C23.2979 34.0015 27.2319 30.0675 27.2319 25.2321C27.2317 19.1005 19.5142 12.0434 19.1856 11.7461ZM22.9455 25.0295C22.9455 27.719 20.7574 29.9071 18.0679 29.9071V27.7517C19.5689 27.7517 20.79 26.5305 20.79 25.0295H22.9455Z" fill="#588535"/>
</svg>
