<svg width="51" height="70" viewBox="0 0 51 70" fill="none" xmlns="http://www.w3.org/2000/svg">
<path d="M43.2328 0C43.2328 0 37.4735 5.58765 31.2447 7.84041C-14.881 24.5243 4.57217 57.0365 5.2068 57.1436C5.2068 57.1436 7.79332 52.6394 11.2873 50.0702C33.4586 33.771 37.9649 15.0099 37.9649 15.0099C37.9649 15.0099 32.9897 37.5856 13.2649 51.6328C8.90846 54.7337 5.95861 62.3688 4.70991 70C4.70991 70 7.79801 68.7523 9.12593 68.4144C9.64376 65.0352 10.7264 61.7994 12.5568 58.9089C40.1245 62.1911 49.1534 39.9775 50.3329 32.2318C53.1168 13.938 43.2328 0 43.2328 0Z" fill="#588535"/>
</svg>
