<svg width="120" height="90" viewBox="0 0 120 90" fill="none" xmlns="http://www.w3.org/2000/svg">
<path d="M63.0143 17.92C63.0143 18.6533 62.821 19.3333 62.4343 19.96C62.061 20.5733 61.501 21.08 60.7543 21.48C60.021 21.8667 59.1476 22.08 58.1343 22.12V23.74H56.8543V22.1C55.441 21.98 54.301 21.56 53.4343 20.84C52.5676 20.1067 52.1076 19.1133 52.0543 17.86H55.6943C55.7743 18.66 56.161 19.1733 56.8543 19.4V16.24C55.8143 15.9733 54.981 15.7133 54.3543 15.46C53.741 15.2067 53.201 14.8 52.7343 14.24C52.2676 13.68 52.0343 12.9133 52.0343 11.94C52.0343 10.7267 52.481 9.75333 53.3743 9.02C54.281 8.28667 55.441 7.87333 56.8543 7.78V6.16H58.1343V7.78C59.5343 7.88667 60.641 8.29333 61.4543 9C62.2676 9.70667 62.721 10.6867 62.8143 11.94H59.1543C59.0743 11.22 58.7343 10.7533 58.1343 10.54V13.64C59.241 13.9467 60.0943 14.22 60.6943 14.46C61.2943 14.7 61.8276 15.1 62.2943 15.66C62.7743 16.2067 63.0143 16.96 63.0143 17.92ZM55.6543 11.78C55.6543 12.1133 55.7543 12.3933 55.9543 12.62C56.1676 12.8467 56.4676 13.0467 56.8543 13.22V10.44C56.481 10.5067 56.1876 10.6533 55.9743 10.88C55.761 11.0933 55.6543 11.3933 55.6543 11.78ZM58.1343 19.46C58.5343 19.3933 58.8476 19.2333 59.0743 18.98C59.3143 18.7267 59.4343 18.4133 59.4343 18.04C59.4343 17.6933 59.321 17.4133 59.0943 17.2C58.881 16.9733 58.561 16.78 58.1343 16.62V19.46ZM67.6184 14.16C66.365 13.4933 65.7384 12.4467 65.7384 11.02C65.7384 10.3 65.925 9.64667 66.2984 9.06C66.6717 8.46 67.2384 7.98667 67.9984 7.64C68.7584 7.28 69.6917 7.1 70.7984 7.1C71.905 7.1 72.8317 7.28 73.5784 7.64C74.3384 7.98667 74.905 8.46 75.2784 9.06C75.6517 9.64667 75.8384 10.3 75.8384 11.02C75.8384 11.74 75.665 12.3667 75.3184 12.9C74.985 13.4333 74.5317 13.8533 73.9584 14.16C74.6784 14.5067 75.2317 14.9867 75.6184 15.6C76.005 16.2 76.1984 16.9067 76.1984 17.72C76.1984 18.6667 75.9584 19.4867 75.4784 20.18C74.9984 20.86 74.345 21.38 73.5184 21.74C72.705 22.1 71.7984 22.28 70.7984 22.28C69.7984 22.28 68.885 22.1 68.0584 21.74C67.245 21.38 66.5984 20.86 66.1184 20.18C65.6384 19.4867 65.3984 18.6667 65.3984 17.72C65.3984 16.8933 65.5917 16.18 65.9784 15.58C66.365 14.9667 66.9117 14.4933 67.6184 14.16ZM72.5184 11.54C72.5184 10.9933 72.3584 10.5733 72.0384 10.28C71.7317 9.97333 71.3184 9.82 70.7984 9.82C70.2784 9.82 69.8584 9.97333 69.5384 10.28C69.2317 10.5867 69.0784 11.0133 69.0784 11.56C69.0784 12.08 69.2384 12.4933 69.5584 12.8C69.8784 13.0933 70.2917 13.24 70.7984 13.24C71.305 13.24 71.7184 13.0867 72.0384 12.78C72.3584 12.4733 72.5184 12.06 72.5184 11.54ZM70.7984 15.64C70.1717 15.64 69.665 15.8133 69.2784 16.16C68.8917 16.4933 68.6984 16.96 68.6984 17.56C68.6984 18.12 68.885 18.58 69.2584 18.94C69.645 19.3 70.1584 19.48 70.7984 19.48C71.4384 19.48 71.9384 19.3 72.2984 18.94C72.6717 18.58 72.8584 18.12 72.8584 17.56C72.8584 16.9733 72.665 16.5067 72.2784 16.16C71.905 15.8133 71.4117 15.64 70.7984 15.64ZM81.8671 17.72C82.0671 18.7733 82.6804 19.3 83.7071 19.3C84.4138 19.3 84.9138 18.9867 85.2071 18.36C85.5004 17.7333 85.6471 16.7133 85.6471 15.3C85.3538 15.7133 84.9538 16.0333 84.4471 16.26C83.9404 16.4867 83.3738 16.6 82.7471 16.6C81.8938 16.6 81.1338 16.4267 80.4671 16.08C79.8004 15.72 79.2738 15.1933 78.8871 14.5C78.5138 13.7933 78.3271 12.94 78.3271 11.94C78.3271 10.9533 78.5271 10.0933 78.9271 9.36C79.3404 8.62667 79.9204 8.06 80.6671 7.66C81.4271 7.26 82.3204 7.06 83.3471 7.06C85.3204 7.06 86.7004 7.67333 87.4871 8.9C88.2738 10.1267 88.6671 11.9333 88.6671 14.32C88.6671 16.0533 88.5071 17.4867 88.1871 18.62C87.8804 19.74 87.3538 20.5933 86.6071 21.18C85.8738 21.7667 84.8671 22.06 83.5871 22.06C82.5738 22.06 81.7071 21.86 80.9871 21.46C80.2804 21.06 79.7338 20.5333 79.3471 19.88C78.9738 19.2267 78.7604 18.5067 78.7071 17.72H81.8671ZM83.5271 13.9C84.0871 13.9 84.5338 13.7333 84.8671 13.4C85.2004 13.0533 85.3671 12.5867 85.3671 12C85.3671 11.36 85.1938 10.8667 84.8471 10.52C84.5004 10.1733 84.0338 10 83.4471 10C82.8604 10 82.3938 10.18 82.0471 10.54C81.7138 10.8867 81.5471 11.3667 81.5471 11.98C81.5471 12.5533 81.7138 13.02 82.0471 13.38C82.3938 13.7267 82.8871 13.9 83.5271 13.9ZM92.4318 22.16C91.8318 22.16 91.3385 21.9867 90.9518 21.64C90.5785 21.28 90.3918 20.84 90.3918 20.32C90.3918 19.7867 90.5785 19.34 90.9518 18.98C91.3385 18.62 91.8318 18.44 92.4318 18.44C93.0185 18.44 93.4985 18.62 93.8718 18.98C94.2585 19.34 94.4518 19.7867 94.4518 20.32C94.4518 20.84 94.2585 21.28 93.8718 21.64C93.4985 21.9867 93.0185 22.16 92.4318 22.16ZM99.8163 17.72C100.016 18.7733 100.63 19.3 101.656 19.3C102.363 19.3 102.863 18.9867 103.156 18.36C103.45 17.7333 103.596 16.7133 103.596 15.3C103.303 15.7133 102.903 16.0333 102.396 16.26C101.89 16.4867 101.323 16.6 100.696 16.6C99.843 16.6 99.083 16.4267 98.4163 16.08C97.7497 15.72 97.223 15.1933 96.8363 14.5C96.463 13.7933 96.2763 12.94 96.2763 11.94C96.2763 10.9533 96.4763 10.0933 96.8763 9.36C97.2897 8.62667 97.8697 8.06 98.6163 7.66C99.3763 7.26 100.27 7.06 101.296 7.06C103.27 7.06 104.65 7.67333 105.436 8.9C106.223 10.1267 106.616 11.9333 106.616 14.32C106.616 16.0533 106.456 17.4867 106.136 18.62C105.83 19.74 105.303 20.5933 104.556 21.18C103.823 21.7667 102.816 22.06 101.536 22.06C100.523 22.06 99.6563 21.86 98.9363 21.46C98.2297 21.06 97.683 20.5333 97.2963 19.88C96.923 19.2267 96.7097 18.5067 96.6563 17.72H99.8163ZM101.476 13.9C102.036 13.9 102.483 13.7333 102.816 13.4C103.15 13.0533 103.316 12.5867 103.316 12C103.316 11.36 103.143 10.8667 102.796 10.52C102.45 10.1733 101.983 10 101.396 10C100.81 10 100.343 10.18 99.9963 10.54C99.663 10.8867 99.4963 11.3667 99.4963 11.98C99.4963 12.5533 99.663 13.02 99.9963 13.38C100.343 13.7267 100.836 13.9 101.476 13.9ZM112.121 17.72C112.321 18.7733 112.934 19.3 113.961 19.3C114.668 19.3 115.168 18.9867 115.461 18.36C115.754 17.7333 115.901 16.7133 115.901 15.3C115.608 15.7133 115.208 16.0333 114.701 16.26C114.194 16.4867 113.628 16.6 113.001 16.6C112.148 16.6 111.388 16.4267 110.721 16.08C110.054 15.72 109.528 15.1933 109.141 14.5C108.768 13.7933 108.581 12.94 108.581 11.94C108.581 10.9533 108.781 10.0933 109.181 9.36C109.594 8.62667 110.174 8.06 110.921 7.66C111.681 7.26 112.574 7.06 113.601 7.06C115.574 7.06 116.954 7.67333 117.741 8.9C118.528 10.1267 118.921 11.9333 118.921 14.32C118.921 16.0533 118.761 17.4867 118.441 18.62C118.134 19.74 117.608 20.5933 116.861 21.18C116.128 21.7667 115.121 22.06 113.841 22.06C112.828 22.06 111.961 21.86 111.241 21.46C110.534 21.06 109.988 20.5333 109.601 19.88C109.228 19.2267 109.014 18.5067 108.961 17.72H112.121ZM113.781 13.9C114.341 13.9 114.788 13.7333 115.121 13.4C115.454 13.0533 115.621 12.5867 115.621 12C115.621 11.36 115.448 10.8667 115.101 10.52C114.754 10.1733 114.288 10 113.701 10C113.114 10 112.648 10.18 112.301 10.54C111.968 10.8867 111.801 11.3667 111.801 11.98C111.801 12.5533 111.968 13.02 112.301 13.38C112.648 13.7267 113.141 13.9 113.781 13.9Z" fill="#22271C"/>
<path d="M9.53167 71.2525C9.69364 70.8193 10.3064 70.8193 10.4683 71.2525L12.3528 76.2922C12.4231 76.4801 12.5989 76.6078 12.7993 76.6166L18.1747 76.8515C18.6367 76.8716 18.826 77.4544 18.4641 77.7423L14.2534 81.0919C14.0964 81.2168 14.0293 81.4234 14.0829 81.6168L15.5206 86.8016C15.6441 87.2473 15.1484 87.6074 14.7628 87.3522L10.276 84.3826C10.1086 84.2719 9.89135 84.2719 9.72405 84.3826L5.23722 87.3522C4.85157 87.6074 4.35587 87.2473 4.47944 86.8016L5.91714 81.6168C5.97075 81.4234 5.9036 81.2168 5.74659 81.0919L1.53589 77.7423C1.17397 77.4544 1.3633 76.8716 1.82533 76.8515L7.2007 76.6166C7.40114 76.6078 7.57693 76.4801 7.6472 76.2922L9.53167 71.2525Z" fill="#FFD700"/>
<path d="M34.5317 71.2525C34.6936 70.8193 35.3064 70.8193 35.4683 71.2525L37.3528 76.2922C37.4231 76.4801 37.5989 76.6078 37.7993 76.6166L43.1747 76.8515C43.6367 76.8716 43.826 77.4544 43.4641 77.7423L39.2534 81.0919C39.0964 81.2168 39.0293 81.4234 39.0829 81.6168L40.5206 86.8016C40.6441 87.2473 40.1484 87.6074 39.7628 87.3522L35.276 84.3826C35.1086 84.2719 34.8914 84.2719 34.724 84.3826L30.2372 87.3522C29.8516 87.6074 29.3559 87.2473 29.4794 86.8016L30.9171 81.6168C30.9707 81.4234 30.9036 81.2168 30.7466 81.0919L26.5359 77.7423C26.174 77.4544 26.3633 76.8716 26.8253 76.8515L32.2007 76.6166C32.4011 76.6078 32.5769 76.4801 32.6472 76.2922L34.5317 71.2525Z" fill="#FFD700"/>
<path d="M59.5317 71.2525C59.6936 70.8193 60.3064 70.8193 60.4683 71.2525L62.3528 76.2922C62.4231 76.4801 62.5989 76.6078 62.7993 76.6166L68.1747 76.8515C68.6367 76.8716 68.826 77.4544 68.4641 77.7423L64.2534 81.0919C64.0964 81.2168 64.0293 81.4234 64.0829 81.6168L65.5206 86.8016C65.6441 87.2473 65.1484 87.6074 64.7628 87.3522L60.276 84.3826C60.1086 84.2719 59.8914 84.2719 59.724 84.3826L55.2372 87.3522C54.8516 87.6074 54.3559 87.2473 54.4794 86.8016L55.9171 81.6168C55.9707 81.4234 55.9036 81.2168 55.7466 81.0919L51.5359 77.7423C51.174 77.4544 51.3633 76.8716 51.8253 76.8515L57.2007 76.6166C57.4011 76.6078 57.5769 76.4801 57.6472 76.2922L59.5317 71.2525Z" fill="#FFD700"/>
<path d="M84.5317 71.2525C84.6936 70.8193 85.3064 70.8193 85.4683 71.2525L87.3528 76.2922C87.4231 76.4801 87.5989 76.6078 87.7993 76.6166L93.1747 76.8515C93.6367 76.8716 93.826 77.4544 93.4641 77.7423L89.2534 81.0919C89.0964 81.2168 89.0293 81.4234 89.0829 81.6168L90.5206 86.8016C90.6441 87.2473 90.1484 87.6074 89.7628 87.3522L85.276 84.3826C85.1086 84.2719 84.8914 84.2719 84.724 84.3826L80.2372 87.3522C79.8516 87.6074 79.3559 87.2473 79.4794 86.8016L80.9171 81.6168C80.9707 81.4234 80.9036 81.2168 80.7466 81.0919L76.5359 77.7423C76.174 77.4544 76.3633 76.8716 76.8253 76.8515L82.2007 76.6166C82.4011 76.6078 82.5769 76.4801 82.6472 76.2922L84.5317 71.2525Z" fill="#FFD700"/>
<path d="M109.532 71.2525C109.694 70.8193 110.306 70.8193 110.468 71.2525L112.353 76.2922C112.423 76.4801 112.599 76.6078 112.799 76.6166L118.175 76.8515C118.637 76.8716 118.826 77.4544 118.464 77.7423L114.253 81.0919C114.096 81.2168 114.029 81.4234 114.083 81.6168L115.521 86.8016C115.644 87.2473 115.148 87.6074 114.763 87.3522L110.276 84.3826C110.109 84.2719 109.891 84.2719 109.724 84.3826L105.237 87.3522C104.852 87.6074 104.356 87.2473 104.479 86.8016L105.917 81.6168C105.971 81.4234 105.904 81.2168 105.747 81.0919L101.536 77.7423C101.174 77.4544 101.363 76.8716 101.825 76.8515L107.201 76.6166C107.401 76.6078 107.577 76.4801 107.647 76.2922L109.532 71.2525Z" fill="#FFD700"/>
</svg>
