<svg width="121" height="90" viewBox="0 0 121 90" fill="none" xmlns="http://www.w3.org/2000/svg">
<path d="M63.4948 17.92C63.4948 18.6533 63.3014 19.3333 62.9148 19.96C62.5414 20.5733 61.9814 21.08 61.2348 21.48C60.5014 21.8667 59.6281 22.08 58.6148 22.12V23.74H57.3348V22.1C55.9214 21.98 54.7814 21.56 53.9148 20.84C53.0481 20.1067 52.5881 19.1133 52.5348 17.86H56.1748C56.2548 18.66 56.6414 19.1733 57.3348 19.4V16.24C56.2948 15.9733 55.4614 15.7133 54.8348 15.46C54.2214 15.2067 53.6814 14.8 53.2148 14.24C52.7481 13.68 52.5148 12.9133 52.5148 11.94C52.5148 10.7267 52.9614 9.75333 53.8548 9.02C54.7614 8.28667 55.9214 7.87333 57.3348 7.78V6.16H58.6148V7.78C60.0148 7.88667 61.1214 8.29333 61.9348 9C62.7481 9.70667 63.2014 10.6867 63.2948 11.94H59.6348C59.5548 11.22 59.2148 10.7533 58.6148 10.54V13.64C59.7214 13.9467 60.5748 14.22 61.1748 14.46C61.7748 14.7 62.3081 15.1 62.7748 15.66C63.2548 16.2067 63.4948 16.96 63.4948 17.92ZM56.1348 11.78C56.1348 12.1133 56.2348 12.3933 56.4348 12.62C56.6481 12.8467 56.9481 13.0467 57.3348 13.22V10.44C56.9614 10.5067 56.6681 10.6533 56.4548 10.88C56.2414 11.0933 56.1348 11.3933 56.1348 11.78ZM58.6148 19.46C59.0148 19.3933 59.3281 19.2333 59.5548 18.98C59.7948 18.7267 59.9148 18.4133 59.9148 18.04C59.9148 17.6933 59.8014 17.4133 59.5748 17.2C59.3614 16.9733 59.0414 16.78 58.6148 16.62V19.46ZM75.9788 10.38H69.7388V13.14C70.0055 12.8467 70.3788 12.6067 70.8588 12.42C71.3388 12.2333 71.8588 12.14 72.4188 12.14C73.4188 12.14 74.2455 12.3667 74.8988 12.82C75.5655 13.2733 76.0522 13.86 76.3588 14.58C76.6655 15.3 76.8188 16.08 76.8188 16.92C76.8188 18.48 76.3788 19.72 75.4988 20.64C74.6188 21.5467 73.3788 22 71.7788 22C70.7122 22 69.7855 21.82 68.9988 21.46C68.2122 21.0867 67.6055 20.5733 67.1788 19.92C66.7522 19.2667 66.5188 18.5133 66.4788 17.66H69.8188C69.8988 18.0733 70.0922 18.42 70.3988 18.7C70.7055 18.9667 71.1255 19.1 71.6588 19.1C72.2855 19.1 72.7522 18.9 73.0588 18.5C73.3655 18.1 73.5188 17.5667 73.5188 16.9C73.5188 16.2467 73.3588 15.7467 73.0388 15.4C72.7188 15.0533 72.2522 14.88 71.6388 14.88C71.1855 14.88 70.8122 14.9933 70.5188 15.22C70.2255 15.4333 70.0322 15.72 69.9388 16.08H66.6388V7.38H75.9788V10.38ZM82.3866 17.72C82.5866 18.7733 83.2 19.3 84.2266 19.3C84.9333 19.3 85.4333 18.9867 85.7266 18.36C86.02 17.7333 86.1666 16.7133 86.1666 15.3C85.8733 15.7133 85.4733 16.0333 84.9666 16.26C84.46 16.4867 83.8933 16.6 83.2666 16.6C82.4133 16.6 81.6533 16.4267 80.9866 16.08C80.32 15.72 79.7933 15.1933 79.4066 14.5C79.0333 13.7933 78.8466 12.94 78.8466 11.94C78.8466 10.9533 79.0466 10.0933 79.4466 9.36C79.86 8.62667 80.44 8.06 81.1866 7.66C81.9466 7.26 82.84 7.06 83.8666 7.06C85.84 7.06 87.22 7.67333 88.0066 8.9C88.7933 10.1267 89.1866 11.9333 89.1866 14.32C89.1866 16.0533 89.0266 17.4867 88.7066 18.62C88.4 19.74 87.8733 20.5933 87.1266 21.18C86.3933 21.7667 85.3866 22.06 84.1066 22.06C83.0933 22.06 82.2266 21.86 81.5066 21.46C80.8 21.06 80.2533 20.5333 79.8666 19.88C79.4933 19.2267 79.28 18.5067 79.2266 17.72H82.3866ZM84.0466 13.9C84.6066 13.9 85.0533 13.7333 85.3866 13.4C85.72 13.0533 85.8866 12.5867 85.8866 12C85.8866 11.36 85.7133 10.8667 85.3666 10.52C85.02 10.1733 84.5533 10 83.9666 10C83.38 10 82.9133 10.18 82.5666 10.54C82.2333 10.8867 82.0666 11.3667 82.0666 11.98C82.0666 12.5533 82.2333 13.02 82.5666 13.38C82.9133 13.7267 83.4066 13.9 84.0466 13.9ZM92.9513 22.16C92.3513 22.16 91.858 21.9867 91.4713 21.64C91.098 21.28 90.9113 20.84 90.9113 20.32C90.9113 19.7867 91.098 19.34 91.4713 18.98C91.858 18.62 92.3513 18.44 92.9513 18.44C93.538 18.44 94.018 18.62 94.3913 18.98C94.778 19.34 94.9713 19.7867 94.9713 20.32C94.9713 20.84 94.778 21.28 94.3913 21.64C94.018 21.9867 93.538 22.16 92.9513 22.16ZM100.336 17.72C100.536 18.7733 101.149 19.3 102.176 19.3C102.883 19.3 103.383 18.9867 103.676 18.36C103.969 17.7333 104.116 16.7133 104.116 15.3C103.823 15.7133 103.423 16.0333 102.916 16.26C102.409 16.4867 101.843 16.6 101.216 16.6C100.363 16.6 99.6025 16.4267 98.9359 16.08C98.2692 15.72 97.7425 15.1933 97.3559 14.5C96.9825 13.7933 96.7959 12.94 96.7959 11.94C96.7959 10.9533 96.9959 10.0933 97.3959 9.36C97.8092 8.62667 98.3892 8.06 99.1359 7.66C99.8959 7.26 100.789 7.06 101.816 7.06C103.789 7.06 105.169 7.67333 105.956 8.9C106.743 10.1267 107.136 11.9333 107.136 14.32C107.136 16.0533 106.976 17.4867 106.656 18.62C106.349 19.74 105.823 20.5933 105.076 21.18C104.343 21.7667 103.336 22.06 102.056 22.06C101.043 22.06 100.176 21.86 99.4559 21.46C98.7492 21.06 98.2025 20.5333 97.8159 19.88C97.4425 19.2267 97.2292 18.5067 97.1759 17.72H100.336ZM101.996 13.9C102.556 13.9 103.003 13.7333 103.336 13.4C103.669 13.0533 103.836 12.5867 103.836 12C103.836 11.36 103.663 10.8667 103.316 10.52C102.969 10.1733 102.503 10 101.916 10C101.329 10 100.863 10.18 100.516 10.54C100.183 10.8867 100.016 11.3667 100.016 11.98C100.016 12.5533 100.183 13.02 100.516 13.38C100.863 13.7267 101.356 13.9 101.996 13.9ZM112.641 17.72C112.841 18.7733 113.454 19.3 114.481 19.3C115.187 19.3 115.687 18.9867 115.981 18.36C116.274 17.7333 116.421 16.7133 116.421 15.3C116.127 15.7133 115.727 16.0333 115.221 16.26C114.714 16.4867 114.147 16.6 113.521 16.6C112.667 16.6 111.907 16.4267 111.241 16.08C110.574 15.72 110.047 15.1933 109.661 14.5C109.287 13.7933 109.101 12.94 109.101 11.94C109.101 10.9533 109.301 10.0933 109.701 9.36C110.114 8.62667 110.694 8.06 111.441 7.66C112.201 7.26 113.094 7.06 114.121 7.06C116.094 7.06 117.474 7.67333 118.261 8.9C119.047 10.1267 119.441 11.9333 119.441 14.32C119.441 16.0533 119.281 17.4867 118.961 18.62C118.654 19.74 118.127 20.5933 117.381 21.18C116.647 21.7667 115.641 22.06 114.361 22.06C113.347 22.06 112.481 21.86 111.761 21.46C111.054 21.06 110.507 20.5333 110.121 19.88C109.747 19.2267 109.534 18.5067 109.481 17.72H112.641ZM114.301 13.9C114.861 13.9 115.307 13.7333 115.641 13.4C115.974 13.0533 116.141 12.5867 116.141 12C116.141 11.36 115.967 10.8667 115.621 10.52C115.274 10.1733 114.807 10 114.221 10C113.634 10 113.167 10.18 112.821 10.54C112.487 10.8867 112.321 11.3667 112.321 11.98C112.321 12.5533 112.487 13.02 112.821 13.38C113.167 13.7267 113.661 13.9 114.301 13.9Z" fill="#22271C"/>
<path d="M10.0317 71.2525C10.1936 70.8193 10.8064 70.8193 10.9683 71.2525L12.8528 76.2922C12.9231 76.4801 13.0989 76.6078 13.2993 76.6166L18.6747 76.8515C19.1367 76.8716 19.326 77.4544 18.9641 77.7423L14.7534 81.0919C14.5964 81.2168 14.5293 81.4234 14.5829 81.6168L16.0206 86.8016C16.1441 87.2473 15.6484 87.6074 15.2628 87.3522L10.776 84.3826C10.6086 84.2719 10.3914 84.2719 10.224 84.3826L5.73722 87.3522C5.35157 87.6074 4.85587 87.2473 4.97944 86.8016L6.41714 81.6168C6.47075 81.4234 6.4036 81.2168 6.24659 81.0919L2.03589 77.7423C1.67397 77.4544 1.8633 76.8716 2.32533 76.8515L7.7007 76.6166C7.90114 76.6078 8.07693 76.4801 8.1472 76.2922L10.0317 71.2525Z" fill="#FFD700"/>
<path d="M35.0317 71.2525C35.1936 70.8193 35.8064 70.8193 35.9683 71.2525L37.8528 76.2922C37.9231 76.4801 38.0989 76.6078 38.2993 76.6166L43.6747 76.8515C44.1367 76.8716 44.326 77.4544 43.9641 77.7423L39.7534 81.0919C39.5964 81.2168 39.5293 81.4234 39.5829 81.6168L41.0206 86.8016C41.1441 87.2473 40.6484 87.6074 40.2628 87.3522L35.776 84.3826C35.6086 84.2719 35.3914 84.2719 35.224 84.3826L30.7372 87.3522C30.3516 87.6074 29.8559 87.2473 29.9794 86.8016L31.4171 81.6168C31.4707 81.4234 31.4036 81.2168 31.2466 81.0919L27.0359 77.7423C26.674 77.4544 26.8633 76.8716 27.3253 76.8515L32.7007 76.6166C32.9011 76.6078 33.0769 76.4801 33.1472 76.2922L35.0317 71.2525Z" fill="#FFD700"/>
<path d="M60.0317 71.2525C60.1936 70.8193 60.8064 70.8193 60.9683 71.2525L62.8528 76.2922C62.9231 76.4801 63.0989 76.6078 63.2993 76.6166L68.6747 76.8515C69.1367 76.8716 69.326 77.4544 68.9641 77.7423L64.7534 81.0919C64.5964 81.2168 64.5293 81.4234 64.5829 81.6168L66.0206 86.8016C66.1441 87.2473 65.6484 87.6074 65.2628 87.3522L60.776 84.3826C60.6086 84.2719 60.3914 84.2719 60.224 84.3826L55.7372 87.3522C55.3516 87.6074 54.8559 87.2473 54.9794 86.8016L56.4171 81.6168C56.4707 81.4234 56.4036 81.2168 56.2466 81.0919L52.0359 77.7423C51.674 77.4544 51.8633 76.8716 52.3253 76.8515L57.7007 76.6166C57.9011 76.6078 58.0769 76.4801 58.1472 76.2922L60.0317 71.2525Z" fill="#FFD700"/>
<path d="M85.0317 71.2525C85.1936 70.8193 85.8064 70.8193 85.9683 71.2525L87.8528 76.2922C87.9231 76.4801 88.0989 76.6078 88.2993 76.6166L93.6747 76.8515C94.1367 76.8716 94.326 77.4544 93.9641 77.7423L89.7534 81.0919C89.5964 81.2168 89.5293 81.4234 89.5829 81.6168L91.0206 86.8016C91.1441 87.2473 90.6484 87.6074 90.2628 87.3522L85.776 84.3826C85.6086 84.2719 85.3914 84.2719 85.224 84.3826L80.7372 87.3522C80.3516 87.6074 79.8559 87.2473 79.9794 86.8016L81.4171 81.6168C81.4707 81.4234 81.4036 81.2168 81.2466 81.0919L77.0359 77.7423C76.674 77.4544 76.8633 76.8716 77.3253 76.8515L82.7007 76.6166C82.9011 76.6078 83.0769 76.4801 83.1472 76.2922L85.0317 71.2525Z" fill="#FFD700"/>
<path d="M110.032 71.2525C110.194 70.8193 110.806 70.8193 110.968 71.2525L112.853 76.2922C112.923 76.4801 113.099 76.6078 113.299 76.6166L118.675 76.8515C119.137 76.8716 119.326 77.4544 118.964 77.7423L114.753 81.0919C114.596 81.2168 114.529 81.4234 114.583 81.6168L116.021 86.8016C116.144 87.2473 115.648 87.6074 115.263 87.3522L110.776 84.3826C110.609 84.2719 110.391 84.2719 110.224 84.3826L105.737 87.3522C105.352 87.6074 104.856 87.2473 104.979 86.8016L106.417 81.6168C106.471 81.4234 106.404 81.2168 106.247 81.0919L102.036 77.7423C101.674 77.4544 101.863 76.8716 102.325 76.8515L107.701 76.6166C107.901 76.6078 108.077 76.4801 108.147 76.2922L110.032 71.2525Z" fill="#FFD700"/>
</svg>
