<svg width="120" height="90" viewBox="0 0 120 90" fill="none" xmlns="http://www.w3.org/2000/svg">
<path d="M63.1315 17.92C63.1315 18.6533 62.9382 19.3333 62.5515 19.96C62.1782 20.5733 61.6182 21.08 60.8715 21.48C60.1382 21.8667 59.2648 22.08 58.2515 22.12V23.74H56.9715V22.1C55.5582 21.98 54.4182 21.56 53.5515 20.84C52.6848 20.1067 52.2248 19.1133 52.1715 17.86H55.8115C55.8915 18.66 56.2782 19.1733 56.9715 19.4V16.24C55.9315 15.9733 55.0982 15.7133 54.4715 15.46C53.8582 15.2067 53.3182 14.8 52.8515 14.24C52.3848 13.68 52.1515 12.9133 52.1515 11.94C52.1515 10.7267 52.5982 9.75333 53.4915 9.02C54.3982 8.28667 55.5582 7.87333 56.9715 7.78V6.16H58.2515V7.78C59.6515 7.88667 60.7582 8.29333 61.5715 9C62.3848 9.70667 62.8382 10.6867 62.9315 11.94H59.2715C59.1915 11.22 58.8515 10.7533 58.2515 10.54V13.64C59.3582 13.9467 60.2115 14.22 60.8115 14.46C61.4115 14.7 61.9448 15.1 62.4115 15.66C62.8915 16.2067 63.1315 16.96 63.1315 17.92ZM55.7715 11.78C55.7715 12.1133 55.8715 12.3933 56.0715 12.62C56.2848 12.8467 56.5848 13.0467 56.9715 13.22V10.44C56.5982 10.5067 56.3048 10.6533 56.0915 10.88C55.8782 11.0933 55.7715 11.3933 55.7715 11.78ZM58.2515 19.46C58.6515 19.3933 58.9648 19.2333 59.1915 18.98C59.4315 18.7267 59.5515 18.4133 59.5515 18.04C59.5515 17.6933 59.4382 17.4133 59.2115 17.2C58.9982 16.9733 58.6782 16.78 58.2515 16.62V19.46ZM72.5555 11.34C72.4489 10.8467 72.2622 10.48 71.9955 10.24C71.7289 9.98667 71.3489 9.86 70.8555 9.86C70.0955 9.86 69.5489 10.1933 69.2155 10.86C68.8822 11.5133 68.7089 12.5533 68.6955 13.98C68.9889 13.5133 69.4089 13.1467 69.9555 12.88C70.5155 12.6133 71.1289 12.48 71.7955 12.48C73.1022 12.48 74.1489 12.8933 74.9355 13.72C75.7355 14.5467 76.1355 15.7 76.1355 17.18C76.1355 18.1533 75.9355 19.0067 75.5355 19.74C75.1489 20.4733 74.5755 21.0467 73.8155 21.46C73.0689 21.8733 72.1822 22.08 71.1555 22.08C69.1022 22.08 67.6755 21.44 66.8755 20.16C66.0755 18.8667 65.6755 17.0133 65.6755 14.6C65.6755 12.0667 66.0955 10.1867 66.9355 8.96C67.7889 7.72 69.1489 7.1 71.0155 7.1C72.0155 7.1 72.8555 7.3 73.5355 7.7C74.2289 8.08667 74.7489 8.6 75.0955 9.24C75.4555 9.88 75.6689 10.58 75.7355 11.34H72.5555ZM70.9755 15.18C70.4022 15.18 69.9222 15.3533 69.5355 15.7C69.1622 16.0333 68.9755 16.5133 68.9755 17.14C68.9755 17.78 69.1489 18.28 69.4955 18.64C69.8555 19 70.3622 19.18 71.0155 19.18C71.6022 19.18 72.0622 19.0067 72.3955 18.66C72.7422 18.3 72.9155 17.8133 72.9155 17.2C72.9155 16.5733 72.7489 16.08 72.4155 15.72C72.0822 15.36 71.6022 15.18 70.9755 15.18ZM81.7499 17.72C81.9499 18.7733 82.5633 19.3 83.5899 19.3C84.2966 19.3 84.7966 18.9867 85.0899 18.36C85.3833 17.7333 85.5299 16.7133 85.5299 15.3C85.2366 15.7133 84.8366 16.0333 84.3299 16.26C83.8233 16.4867 83.2566 16.6 82.6299 16.6C81.7766 16.6 81.0166 16.4267 80.3499 16.08C79.6833 15.72 79.1566 15.1933 78.7699 14.5C78.3966 13.7933 78.2099 12.94 78.2099 11.94C78.2099 10.9533 78.4099 10.0933 78.8099 9.36C79.2233 8.62667 79.8033 8.06 80.5499 7.66C81.3099 7.26 82.2033 7.06 83.2299 7.06C85.2033 7.06 86.5833 7.67333 87.3699 8.9C88.1566 10.1267 88.5499 11.9333 88.5499 14.32C88.5499 16.0533 88.3899 17.4867 88.0699 18.62C87.7633 19.74 87.2366 20.5933 86.4899 21.18C85.7566 21.7667 84.7499 22.06 83.4699 22.06C82.4566 22.06 81.5899 21.86 80.8699 21.46C80.1633 21.06 79.6166 20.5333 79.2299 19.88C78.8566 19.2267 78.6433 18.5067 78.5899 17.72H81.7499ZM83.4099 13.9C83.9699 13.9 84.4166 13.7333 84.7499 13.4C85.0833 13.0533 85.2499 12.5867 85.2499 12C85.2499 11.36 85.0766 10.8667 84.7299 10.52C84.3833 10.1733 83.9166 10 83.3299 10C82.7433 10 82.2766 10.18 81.9299 10.54C81.5966 10.8867 81.4299 11.3667 81.4299 11.98C81.4299 12.5533 81.5966 13.02 81.9299 13.38C82.2766 13.7267 82.7699 13.9 83.4099 13.9ZM92.3146 22.16C91.7146 22.16 91.2213 21.9867 90.8346 21.64C90.4613 21.28 90.2746 20.84 90.2746 20.32C90.2746 19.7867 90.4613 19.34 90.8346 18.98C91.2213 18.62 91.7146 18.44 92.3146 18.44C92.9013 18.44 93.3813 18.62 93.7546 18.98C94.1413 19.34 94.3346 19.7867 94.3346 20.32C94.3346 20.84 94.1413 21.28 93.7546 21.64C93.3813 21.9867 92.9013 22.16 92.3146 22.16ZM99.6991 17.72C99.8991 18.7733 100.512 19.3 101.539 19.3C102.246 19.3 102.746 18.9867 103.039 18.36C103.332 17.7333 103.479 16.7133 103.479 15.3C103.186 15.7133 102.786 16.0333 102.279 16.26C101.772 16.4867 101.206 16.6 100.579 16.6C99.7258 16.6 98.9658 16.4267 98.2991 16.08C97.6325 15.72 97.1058 15.1933 96.7191 14.5C96.3458 13.7933 96.1591 12.94 96.1591 11.94C96.1591 10.9533 96.3591 10.0933 96.7591 9.36C97.1725 8.62667 97.7525 8.06 98.4991 7.66C99.2591 7.26 100.152 7.06 101.179 7.06C103.152 7.06 104.532 7.67333 105.319 8.9C106.106 10.1267 106.499 11.9333 106.499 14.32C106.499 16.0533 106.339 17.4867 106.019 18.62C105.712 19.74 105.186 20.5933 104.439 21.18C103.706 21.7667 102.699 22.06 101.419 22.06C100.406 22.06 99.5391 21.86 98.8191 21.46C98.1125 21.06 97.5658 20.5333 97.1791 19.88C96.8058 19.2267 96.5925 18.5067 96.5391 17.72H99.6991ZM101.359 13.9C101.919 13.9 102.366 13.7333 102.699 13.4C103.032 13.0533 103.199 12.5867 103.199 12C103.199 11.36 103.026 10.8667 102.679 10.52C102.332 10.1733 101.866 10 101.279 10C100.692 10 100.226 10.18 99.8791 10.54C99.5458 10.8867 99.3791 11.3667 99.3791 11.98C99.3791 12.5533 99.5458 13.02 99.8791 13.38C100.226 13.7267 100.719 13.9 101.359 13.9ZM112.004 17.72C112.204 18.7733 112.817 19.3 113.844 19.3C114.55 19.3 115.05 18.9867 115.344 18.36C115.637 17.7333 115.784 16.7133 115.784 15.3C115.49 15.7133 115.09 16.0333 114.584 16.26C114.077 16.4867 113.51 16.6 112.884 16.6C112.03 16.6 111.27 16.4267 110.604 16.08C109.937 15.72 109.41 15.1933 109.024 14.5C108.65 13.7933 108.464 12.94 108.464 11.94C108.464 10.9533 108.664 10.0933 109.064 9.36C109.477 8.62667 110.057 8.06 110.804 7.66C111.564 7.26 112.457 7.06 113.484 7.06C115.457 7.06 116.837 7.67333 117.624 8.9C118.41 10.1267 118.804 11.9333 118.804 14.32C118.804 16.0533 118.644 17.4867 118.324 18.62C118.017 19.74 117.49 20.5933 116.744 21.18C116.01 21.7667 115.004 22.06 113.724 22.06C112.71 22.06 111.844 21.86 111.124 21.46C110.417 21.06 109.87 20.5333 109.484 19.88C109.11 19.2267 108.897 18.5067 108.844 17.72H112.004ZM113.664 13.9C114.224 13.9 114.67 13.7333 115.004 13.4C115.337 13.0533 115.504 12.5867 115.504 12C115.504 11.36 115.33 10.8667 114.984 10.52C114.637 10.1733 114.17 10 113.584 10C112.997 10 112.53 10.18 112.184 10.54C111.85 10.8867 111.684 11.3667 111.684 11.98C111.684 12.5533 111.85 13.02 112.184 13.38C112.53 13.7267 113.024 13.9 113.664 13.9Z" fill="#22271C"/>
<path d="M9.53167 71.2525C9.69364 70.8193 10.3064 70.8193 10.4683 71.2525L12.3528 76.2922C12.4231 76.4801 12.5989 76.6078 12.7993 76.6166L18.1747 76.8515C18.6367 76.8716 18.826 77.4544 18.4641 77.7423L14.2534 81.0919C14.0964 81.2168 14.0293 81.4234 14.0829 81.6168L15.5206 86.8016C15.6441 87.2473 15.1484 87.6074 14.7628 87.3522L10.276 84.3826C10.1086 84.2719 9.89135 84.2719 9.72405 84.3826L5.23722 87.3522C4.85157 87.6074 4.35587 87.2473 4.47944 86.8016L5.91714 81.6168C5.97075 81.4234 5.9036 81.2168 5.74659 81.0919L1.53589 77.7423C1.17397 77.4544 1.3633 76.8716 1.82533 76.8515L7.2007 76.6166C7.40114 76.6078 7.57693 76.4801 7.6472 76.2922L9.53167 71.2525Z" fill="#FFD700"/>
<path d="M34.5317 71.2525C34.6936 70.8193 35.3064 70.8193 35.4683 71.2525L37.3528 76.2922C37.4231 76.4801 37.5989 76.6078 37.7993 76.6166L43.1747 76.8515C43.6367 76.8716 43.826 77.4544 43.4641 77.7423L39.2534 81.0919C39.0964 81.2168 39.0293 81.4234 39.0829 81.6168L40.5206 86.8016C40.6441 87.2473 40.1484 87.6074 39.7628 87.3522L35.276 84.3826C35.1086 84.2719 34.8914 84.2719 34.724 84.3826L30.2372 87.3522C29.8516 87.6074 29.3559 87.2473 29.4794 86.8016L30.9171 81.6168C30.9707 81.4234 30.9036 81.2168 30.7466 81.0919L26.5359 77.7423C26.174 77.4544 26.3633 76.8716 26.8253 76.8515L32.2007 76.6166C32.4011 76.6078 32.5769 76.4801 32.6472 76.2922L34.5317 71.2525Z" fill="#FFD700"/>
<path d="M59.5317 71.2525C59.6936 70.8193 60.3064 70.8193 60.4683 71.2525L62.3528 76.2922C62.4231 76.4801 62.5989 76.6078 62.7993 76.6166L68.1747 76.8515C68.6367 76.8716 68.826 77.4544 68.4641 77.7423L64.2534 81.0919C64.0964 81.2168 64.0293 81.4234 64.0829 81.6168L65.5206 86.8016C65.6441 87.2473 65.1484 87.6074 64.7628 87.3522L60.276 84.3826C60.1086 84.2719 59.8914 84.2719 59.724 84.3826L55.2372 87.3522C54.8516 87.6074 54.3559 87.2473 54.4794 86.8016L55.9171 81.6168C55.9707 81.4234 55.9036 81.2168 55.7466 81.0919L51.5359 77.7423C51.174 77.4544 51.3633 76.8716 51.8253 76.8515L57.2007 76.6166C57.4011 76.6078 57.5769 76.4801 57.6472 76.2922L59.5317 71.2525Z" fill="#FFD700"/>
<path d="M84.5317 71.2525C84.6936 70.8193 85.3064 70.8193 85.4683 71.2525L87.3528 76.2922C87.4231 76.4801 87.5989 76.6078 87.7993 76.6166L93.1747 76.8515C93.6367 76.8716 93.826 77.4544 93.4641 77.7423L89.2534 81.0919C89.0964 81.2168 89.0293 81.4234 89.0829 81.6168L90.5206 86.8016C90.6441 87.2473 90.1484 87.6074 89.7628 87.3522L85.276 84.3826C85.1086 84.2719 84.8914 84.2719 84.724 84.3826L80.2372 87.3522C79.8516 87.6074 79.3559 87.2473 79.4794 86.8016L80.9171 81.6168C80.9707 81.4234 80.9036 81.2168 80.7466 81.0919L76.5359 77.7423C76.174 77.4544 76.3633 76.8716 76.8253 76.8515L82.2007 76.6166C82.4011 76.6078 82.5769 76.4801 82.6472 76.2922L84.5317 71.2525Z" fill="#FFD700"/>
<path d="M109.532 71.2525C109.694 70.8193 110.306 70.8193 110.468 71.2525L112.353 76.2922C112.423 76.4801 112.599 76.6078 112.799 76.6166L118.175 76.8515C118.637 76.8716 118.826 77.4544 118.464 77.7423L114.253 81.0919C114.096 81.2168 114.029 81.4234 114.083 81.6168L115.521 86.8016C115.644 87.2473 115.148 87.6074 114.763 87.3522L110.276 84.3826C110.109 84.2719 109.891 84.2719 109.724 84.3826L105.237 87.3522C104.852 87.6074 104.356 87.2473 104.479 86.8016L105.917 81.6168C105.971 81.4234 105.904 81.2168 105.747 81.0919L101.536 77.7423C101.174 77.4544 101.363 76.8716 101.825 76.8515L107.201 76.6166C107.401 76.6078 107.577 76.4801 107.647 76.2922L109.532 71.2525Z" fill="#FFD700"/>
</svg>
