<svg width="121" height="90" viewBox="0 0 121 90" fill="none" xmlns="http://www.w3.org/2000/svg">
<path d="M65.6471 17.92C65.6471 18.6533 65.4538 19.3333 65.0671 19.96C64.6938 20.5733 64.1338 21.08 63.3871 21.48C62.6538 21.8667 61.7804 22.08 60.7671 22.12V23.74H59.4871V22.1C58.0738 21.98 56.9338 21.56 56.0671 20.84C55.2004 20.1067 54.7404 19.1133 54.6871 17.86H58.3271C58.4071 18.66 58.7938 19.1733 59.4871 19.4V16.24C58.4471 15.9733 57.6138 15.7133 56.9871 15.46C56.3738 15.2067 55.8338 14.8 55.3671 14.24C54.9004 13.68 54.6671 12.9133 54.6671 11.94C54.6671 10.7267 55.1138 9.75333 56.0071 9.02C56.9138 8.28667 58.0738 7.87333 59.4871 7.78V6.16H60.7671V7.78C62.1671 7.88667 63.2738 8.29333 64.0871 9C64.9004 9.70667 65.3538 10.6867 65.4471 11.94H61.7871C61.7071 11.22 61.3671 10.7533 60.7671 10.54V13.64C61.8738 13.9467 62.7271 14.22 63.3271 14.46C63.9271 14.7 64.4604 15.1 64.9271 15.66C65.4071 16.2067 65.6471 16.96 65.6471 17.92ZM58.2871 11.78C58.2871 12.1133 58.3871 12.3933 58.5871 12.62C58.8004 12.8467 59.1004 13.0467 59.4871 13.22V10.44C59.1138 10.5067 58.8204 10.6533 58.6071 10.88C58.3938 11.0933 58.2871 11.3933 58.2871 11.78ZM60.7671 19.46C61.1671 19.3933 61.4804 19.2333 61.7071 18.98C61.9471 18.7267 62.0671 18.4133 62.0671 18.04C62.0671 17.6933 61.9538 17.4133 61.7271 17.2C61.5138 16.9733 61.1938 16.78 60.7671 16.62V19.46ZM77.1712 9.96L72.1512 22H68.6512L73.7312 10.34H67.5112V7.42H77.1712V9.96ZM82.2343 17.72C82.4343 18.7733 83.0476 19.3 84.0743 19.3C84.781 19.3 85.281 18.9867 85.5743 18.36C85.8676 17.7333 86.0143 16.7133 86.0143 15.3C85.721 15.7133 85.321 16.0333 84.8143 16.26C84.3076 16.4867 83.741 16.6 83.1143 16.6C82.261 16.6 81.501 16.4267 80.8343 16.08C80.1676 15.72 79.641 15.1933 79.2543 14.5C78.881 13.7933 78.6943 12.94 78.6943 11.94C78.6943 10.9533 78.8943 10.0933 79.2943 9.36C79.7076 8.62667 80.2876 8.06 81.0343 7.66C81.7943 7.26 82.6876 7.06 83.7143 7.06C85.6876 7.06 87.0676 7.67333 87.8543 8.9C88.641 10.1267 89.0343 11.9333 89.0343 14.32C89.0343 16.0533 88.8743 17.4867 88.5543 18.62C88.2476 19.74 87.721 20.5933 86.9743 21.18C86.241 21.7667 85.2343 22.06 83.9543 22.06C82.941 22.06 82.0743 21.86 81.3543 21.46C80.6476 21.06 80.101 20.5333 79.7143 19.88C79.341 19.2267 79.1276 18.5067 79.0743 17.72H82.2343ZM83.8943 13.9C84.4543 13.9 84.901 13.7333 85.2343 13.4C85.5676 13.0533 85.7343 12.5867 85.7343 12C85.7343 11.36 85.561 10.8667 85.2143 10.52C84.8676 10.1733 84.401 10 83.8143 10C83.2276 10 82.761 10.18 82.4143 10.54C82.081 10.8867 81.9143 11.3667 81.9143 11.98C81.9143 12.5533 82.081 13.02 82.4143 13.38C82.761 13.7267 83.2543 13.9 83.8943 13.9ZM92.799 22.16C92.199 22.16 91.7057 21.9867 91.319 21.64C90.9457 21.28 90.759 20.84 90.759 20.32C90.759 19.7867 90.9457 19.34 91.319 18.98C91.7057 18.62 92.199 18.44 92.799 18.44C93.3857 18.44 93.8657 18.62 94.239 18.98C94.6257 19.34 94.819 19.7867 94.819 20.32C94.819 20.84 94.6257 21.28 94.239 21.64C93.8657 21.9867 93.3857 22.16 92.799 22.16ZM100.184 17.72C100.384 18.7733 100.997 19.3 102.024 19.3C102.73 19.3 103.23 18.9867 103.524 18.36C103.817 17.7333 103.964 16.7133 103.964 15.3C103.67 15.7133 103.27 16.0333 102.764 16.26C102.257 16.4867 101.69 16.6 101.064 16.6C100.21 16.6 99.4502 16.4267 98.7835 16.08C98.1168 15.72 97.5902 15.1933 97.2035 14.5C96.8302 13.7933 96.6435 12.94 96.6435 11.94C96.6435 10.9533 96.8435 10.0933 97.2435 9.36C97.6568 8.62667 98.2368 8.06 98.9835 7.66C99.7435 7.26 100.637 7.06 101.664 7.06C103.637 7.06 105.017 7.67333 105.804 8.9C106.59 10.1267 106.984 11.9333 106.984 14.32C106.984 16.0533 106.824 17.4867 106.504 18.62C106.197 19.74 105.67 20.5933 104.924 21.18C104.19 21.7667 103.184 22.06 101.904 22.06C100.89 22.06 100.024 21.86 99.3035 21.46C98.5968 21.06 98.0502 20.5333 97.6635 19.88C97.2902 19.2267 97.0768 18.5067 97.0235 17.72H100.184ZM101.844 13.9C102.404 13.9 102.85 13.7333 103.184 13.4C103.517 13.0533 103.684 12.5867 103.684 12C103.684 11.36 103.51 10.8667 103.164 10.52C102.817 10.1733 102.35 10 101.764 10C101.177 10 100.71 10.18 100.364 10.54C100.03 10.8867 99.8635 11.3667 99.8635 11.98C99.8635 12.5533 100.03 13.02 100.364 13.38C100.71 13.7267 101.204 13.9 101.844 13.9ZM112.488 17.72C112.688 18.7733 113.302 19.3 114.328 19.3C115.035 19.3 115.535 18.9867 115.828 18.36C116.122 17.7333 116.268 16.7133 116.268 15.3C115.975 15.7133 115.575 16.0333 115.068 16.26C114.562 16.4867 113.995 16.6 113.368 16.6C112.515 16.6 111.755 16.4267 111.088 16.08C110.422 15.72 109.895 15.1933 109.508 14.5C109.135 13.7933 108.948 12.94 108.948 11.94C108.948 10.9533 109.148 10.0933 109.548 9.36C109.962 8.62667 110.542 8.06 111.288 7.66C112.048 7.26 112.942 7.06 113.968 7.06C115.942 7.06 117.322 7.67333 118.108 8.9C118.895 10.1267 119.288 11.9333 119.288 14.32C119.288 16.0533 119.128 17.4867 118.808 18.62C118.502 19.74 117.975 20.5933 117.228 21.18C116.495 21.7667 115.488 22.06 114.208 22.06C113.195 22.06 112.328 21.86 111.608 21.46C110.902 21.06 110.355 20.5333 109.968 19.88C109.595 19.2267 109.382 18.5067 109.328 17.72H112.488ZM114.148 13.9C114.708 13.9 115.155 13.7333 115.488 13.4C115.822 13.0533 115.988 12.5867 115.988 12C115.988 11.36 115.815 10.8667 115.468 10.52C115.122 10.1733 114.655 10 114.068 10C113.482 10 113.015 10.18 112.668 10.54C112.335 10.8867 112.168 11.3667 112.168 11.98C112.168 12.5533 112.335 13.02 112.668 13.38C113.015 13.7267 113.508 13.9 114.148 13.9Z" fill="#22271C"/>
<path d="M10.0317 71.2525C10.1936 70.8193 10.8064 70.8193 10.9683 71.2525L12.8528 76.2922C12.9231 76.4801 13.0989 76.6078 13.2993 76.6166L18.6747 76.8515C19.1367 76.8716 19.326 77.4544 18.9641 77.7423L14.7534 81.0919C14.5964 81.2168 14.5293 81.4234 14.5829 81.6168L16.0206 86.8016C16.1441 87.2473 15.6484 87.6074 15.2628 87.3522L10.776 84.3826C10.6086 84.2719 10.3914 84.2719 10.224 84.3826L5.73722 87.3522C5.35157 87.6074 4.85587 87.2473 4.97944 86.8016L6.41714 81.6168C6.47075 81.4234 6.4036 81.2168 6.24659 81.0919L2.03589 77.7423C1.67397 77.4544 1.8633 76.8716 2.32533 76.8515L7.7007 76.6166C7.90114 76.6078 8.07693 76.4801 8.1472 76.2922L10.0317 71.2525Z" fill="#FFD700"/>
<path d="M35.0317 71.2525C35.1936 70.8193 35.8064 70.8193 35.9683 71.2525L37.8528 76.2922C37.9231 76.4801 38.0989 76.6078 38.2993 76.6166L43.6747 76.8515C44.1367 76.8716 44.326 77.4544 43.9641 77.7423L39.7534 81.0919C39.5964 81.2168 39.5293 81.4234 39.5829 81.6168L41.0206 86.8016C41.1441 87.2473 40.6484 87.6074 40.2628 87.3522L35.776 84.3826C35.6086 84.2719 35.3914 84.2719 35.224 84.3826L30.7372 87.3522C30.3516 87.6074 29.8559 87.2473 29.9794 86.8016L31.4171 81.6168C31.4707 81.4234 31.4036 81.2168 31.2466 81.0919L27.0359 77.7423C26.674 77.4544 26.8633 76.8716 27.3253 76.8515L32.7007 76.6166C32.9011 76.6078 33.0769 76.4801 33.1472 76.2922L35.0317 71.2525Z" fill="#FFD700"/>
<path d="M60.0317 71.2525C60.1936 70.8193 60.8064 70.8193 60.9683 71.2525L62.8528 76.2922C62.9231 76.4801 63.0989 76.6078 63.2993 76.6166L68.6747 76.8515C69.1367 76.8716 69.326 77.4544 68.9641 77.7423L64.7534 81.0919C64.5964 81.2168 64.5293 81.4234 64.5829 81.6168L66.0206 86.8016C66.1441 87.2473 65.6484 87.6074 65.2628 87.3522L60.776 84.3826C60.6086 84.2719 60.3914 84.2719 60.224 84.3826L55.7372 87.3522C55.3516 87.6074 54.8559 87.2473 54.9794 86.8016L56.4171 81.6168C56.4707 81.4234 56.4036 81.2168 56.2466 81.0919L52.0359 77.7423C51.674 77.4544 51.8633 76.8716 52.3253 76.8515L57.7007 76.6166C57.9011 76.6078 58.0769 76.4801 58.1472 76.2922L60.0317 71.2525Z" fill="#FFD700"/>
<path d="M85.0317 71.2525C85.1936 70.8193 85.8064 70.8193 85.9683 71.2525L87.8528 76.2922C87.9231 76.4801 88.0989 76.6078 88.2993 76.6166L93.6747 76.8515C94.1367 76.8716 94.326 77.4544 93.9641 77.7423L89.7534 81.0919C89.5964 81.2168 89.5293 81.4234 89.5829 81.6168L91.0206 86.8016C91.1441 87.2473 90.6484 87.6074 90.2628 87.3522L85.776 84.3826C85.6086 84.2719 85.3914 84.2719 85.224 84.3826L80.7372 87.3522C80.3516 87.6074 79.8559 87.2473 79.9794 86.8016L81.4171 81.6168C81.4707 81.4234 81.4036 81.2168 81.2466 81.0919L77.0359 77.7423C76.674 77.4544 76.8633 76.8716 77.3253 76.8515L82.7007 76.6166C82.9011 76.6078 83.0769 76.4801 83.1472 76.2922L85.0317 71.2525Z" fill="#FFD700"/>
<path d="M110.032 71.2525C110.194 70.8193 110.806 70.8193 110.968 71.2525L112.853 76.2922C112.923 76.4801 113.099 76.6078 113.299 76.6166L118.675 76.8515C119.137 76.8716 119.326 77.4544 118.964 77.7423L114.753 81.0919C114.596 81.2168 114.529 81.4234 114.583 81.6168L116.021 86.8016C116.144 87.2473 115.648 87.6074 115.263 87.3522L110.776 84.3826C110.609 84.2719 110.391 84.2719 110.224 84.3826L105.737 87.3522C105.352 87.6074 104.856 87.2473 104.979 86.8016L106.417 81.6168C106.471 81.4234 106.404 81.2168 106.247 81.0919L102.036 77.7423C101.674 77.4544 101.863 76.8716 102.325 76.8515L107.701 76.6166C107.901 76.6078 108.077 76.4801 108.147 76.2922L110.032 71.2525Z" fill="#FFD700"/>
</svg>
